<svg width="388" height="352" viewBox="0 0 388 352" fill="none" xmlns="http://www.w3.org/2000/svg">
<path fill-rule="evenodd" clip-rule="evenodd" d="M270.578 351.848C274.879 350.699 281.836 343.578 285.906 339.953L293.312 333.754C296.789 330.555 297.637 329.426 299.199 325.047C301.453 318.715 300.117 315.316 298.852 308.992C292.992 279.68 288.41 243.66 282.316 213.746L265.719 116.613C262.309 117.523 263.078 117.891 260.602 120.246L250.457 128.57C238.473 138.723 233.809 141.836 237.27 159.645L253.918 254.781C255.766 265.902 257.254 275.906 259.324 287.281L270.578 351.848Z" fill="#007F42"/>
<path fill-rule="evenodd" clip-rule="evenodd" d="M316.266 260.477C322.637 256.211 327.156 251.297 333.348 246.453C351.371 232.352 346.68 226.84 342.383 201.309L316.711 52.9531C316.301 50.1758 316.848 48.1406 315.07 47.3477C313.359 46.5859 308.543 52.0781 306.688 53.5742C279.59 75.4141 283.723 72.6172 291.262 116.348C291.902 120.066 292.625 124.922 293.488 129.672L316.266 260.477Z" fill="black"/>
<path fill-rule="evenodd" clip-rule="evenodd" d="M186.012 218.68L205.863 334.91C206.906 340.656 208.371 345.645 208.371 351.848C211.945 350.891 231.387 333.574 233.91 330.727C241.348 322.328 237.754 311.754 235.836 302.023C231.91 282.141 217.75 190.992 215.176 185.629L190.258 207.371C188.352 209.934 186.012 214.812 186.012 218.68Z" fill="#007F42"/>
<path fill-rule="evenodd" clip-rule="evenodd" d="M339.594 33.0195C339.594 44.9531 341.793 51.0391 343.617 62.0391L352.926 115.922C353.785 121.152 354.523 124.105 355.195 129.203C355.93 134.766 357.09 137.184 357.09 143.828C362.121 143.414 366.68 137.102 370.555 133.969C372.402 132.477 372.93 132.172 374.836 130.473C389.031 117.836 389.496 117.73 386.258 98.1406C385.461 93.3125 384.633 89.4141 383.75 84.1211L369.727 0.945312C366.652 1.76562 346.641 18.7852 343.902 21.7773C341.547 24.3516 339.594 28.4805 339.594 33.0195Z" fill="black"/>
<path fill-rule="evenodd" clip-rule="evenodd" d="M62.5664 215.762C62.5664 223.758 67.043 247.074 68.6641 256.324C69.6992 262.23 71.1094 269.855 72.1445 276.164L79.2344 316.703C81.2305 329.117 77.6914 329.645 93.2344 316.414C111.039 301.273 112.547 301.039 108.152 279.039L96.6797 211.785C94.9141 202.902 93.7266 193.238 91.7266 184.656C88.3008 185.57 90.0352 185.203 87.5 187.234L74.957 198.02C69.9805 202.645 62.5664 206.391 62.5664 215.762Z" fill="#ED1C24"/>
<path fill-rule="evenodd" clip-rule="evenodd" d="M143.246 327.539L159.527 313.695C173.176 300.695 174.211 303.438 170.598 281.723L153.937 185.629C149.129 186.746 130.117 203.84 127.824 207.145C123.84 212.891 123.84 217.383 125.18 225.055L143.246 327.539Z" fill="#ED1C24"/>
<path fill-rule="evenodd" clip-rule="evenodd" d="M0.355469 215.762C0.355469 220.16 10.1914 277.156 11.0469 278.945L19.0508 272.367C47.7227 246.812 42.3164 257.402 32.7109 198.961C31.7773 193.281 30.4883 189.613 30.4883 183.688C25.8281 184.074 24.3828 187.434 21.1797 189.93L8.68359 200.762C4.19922 204.199 0.355469 208.973 0.355469 215.762Z" fill="#ED1C24"/>
</svg>
