<svg xmlns="http://www.w3.org/2000/svg" xmlns:xlink="http://www.w3.org/1999/xlink" width="329.073" height="99.213" viewBox="0 0 329.073 99.213">
  <defs>
    <clipPath id="clip-path">
      <rect id="Rectangle_5" data-name="Rectangle 5" width="329.073" height="99.213" transform="translate(0 0)" fill="none"/>
    </clipPath>
  </defs>
  <g id="Group_2" data-name="Group 2" transform="translate(0 0)">
    <g id="Group_1" data-name="Group 1" clip-path="url(#clip-path)">
      <path id="Path_1" data-name="Path 1" d="M273.347,27.385,289.228,8.329s-7.466-7.578-7.687-7.8A1.705,1.705,0,0,0,280.153,0H248.676a1.119,1.119,0,0,0-.779,1.894c6.413,6.417,25.45,25.49,25.45,25.49" fill="#a60026"/>
      <path id="Path_2" data-name="Path 2" d="M328.755,48.879,286.789,5.834l-.06-.061a1.1,1.1,0,0,0-1.56,0c-3.919,4.7-75.284,90.287-75.923,91.1s-.448,1.9,1.109,1.9H278.3a2.606,2.606,0,0,0,2.11-.82c.381-.387,44.731-43.842,48.344-47.5a1.128,1.128,0,0,0,0-1.57" fill="#fd9e00"/>
      <path id="Path_3" data-name="Path 3" d="M16.427,66.831a2.614,2.614,0,0,0-.717-1.846,2.363,2.363,0,0,0-3.494,0,2.7,2.7,0,0,0,0,3.692,2.367,2.367,0,0,0,3.494,0,2.619,2.619,0,0,0,.717-1.846" fill="#a60026"/>
      <path id="Path_4" data-name="Path 4" d="M10.167,68.677a2.707,2.707,0,0,0,0-3.692,2.351,2.351,0,0,0-3.484,0,2.7,2.7,0,0,0,0,3.692,2.356,2.356,0,0,0,3.484,0" fill="#a60026"/>
      <path id="Path_5" data-name="Path 5" d="M42.061,55.248A6.282,6.282,0,0,0,46.8,53.17a7.058,7.058,0,0,0,1.961-5.022V36.993a3.948,3.948,0,0,0-2.995,1.318A4.489,4.489,0,0,0,44.529,41.5v6.652a2.593,2.593,0,0,1-.727,1.846,2.311,2.311,0,0,1-1.741.772H26.67a2.312,2.312,0,0,1-1.743-.772,2.594,2.594,0,0,1-.728-1.846V36.993H21.884q-6.261.344-9.438,3.61a10.524,10.524,0,0,0-3.179,7.566,7.009,7.009,0,0,0,1.589,4.565,6.669,6.669,0,0,0,4.02,2.413c.09.013.23.023.422.03s.4.01.632.01a.519.519,0,0,1,.459.336.55.55,0,0,1-.115.577,6.79,6.79,0,0,1-5.589,2.131A6.9,6.9,0,0,1,6.263,56a7.666,7.666,0,0,1-2.011-4.725,7.805,7.805,0,0,1,.843-4.1,4.7,4.7,0,0,0-.326-4.91l-.593-.811a12.413,12.413,0,0,0-.805,17.819A10.844,10.844,0,0,0,19.3,59.245a4.94,4.94,0,0,0,1.378-3.581,5.4,5.4,0,0,0-1.358-3.429,4.259,4.259,0,0,0-3.37-1.469H15.91a.051.051,0,0,1-.037-.021,1.169,1.169,0,0,1-.211-.02l-.239-.041c-.083-.013-.151-.027-.2-.04a2.619,2.619,0,0,1-1.244-.954,2.549,2.549,0,0,1-.478-1.521,6.064,6.064,0,0,1,1.244-3.58A6.814,6.814,0,0,1,18.381,42.1a12,12,0,0,1,1.511-.3.157.157,0,0,0,.077-.021v6.369a7.055,7.055,0,0,0,1.962,5.022,6.271,6.271,0,0,0,4.6,2.065v.013H42.061Z" fill="#a60026"/>
      <path id="Path_6" data-name="Path 6" d="M40.778,58.9a2.707,2.707,0,0,0,0,3.692,2.351,2.351,0,0,0,3.484,0,2.707,2.707,0,0,0,0-3.692,2.356,2.356,0,0,0-3.484,0" fill="#a60026"/>
      <path id="Path_7" data-name="Path 7" d="M70.795,46.119a8.981,8.981,0,0,0-2.393-6.3,8.439,8.439,0,0,0-5.953-2.81H62.18a7.451,7.451,0,0,0-.784.041,10.477,10.477,0,0,0-6.567,3.062l.593.711a3.882,3.882,0,0,0,4.4,1.135,6.205,6.205,0,0,1,1.894-.446h.058c.14-.013.268-.02.383-.02h.173a4.232,4.232,0,0,1,2.976,1.369,4.78,4.78,0,0,1,1.254,3.174A4.711,4.711,0,0,1,65.3,49.324a4.39,4.39,0,0,1-3.082,1.441h-5.36a3.979,3.979,0,0,0-2.987,1.308,4.442,4.442,0,0,0-1.245,3.174h9.822A8.437,8.437,0,0,0,68.4,52.439a9.013,9.013,0,0,0,2.393-6.32" fill="#a60026"/>
      <path id="Path_8" data-name="Path 8" d="M85.573,32.935a2.31,2.31,0,0,0,1.742-.77,2.7,2.7,0,0,0,0-3.692,2.351,2.351,0,0,0-3.484,0,2.707,2.707,0,0,0,0,3.692,2.311,2.311,0,0,0,1.742.77" fill="#a60026"/>
      <path id="Path_9" data-name="Path 9" d="M91.106,32.935a2.3,2.3,0,0,0,1.752-.77,2.732,2.732,0,0,0,0-3.692,2.363,2.363,0,0,0-3.494,0,2.707,2.707,0,0,0,0,3.692,2.311,2.311,0,0,0,1.742.77" fill="#a60026"/>
      <path id="Path_10" data-name="Path 10" d="M119.132,58.9a2.7,2.7,0,0,0,0,3.692,2.363,2.363,0,0,0,3.494,0,2.735,2.735,0,0,0,0-3.692,2.367,2.367,0,0,0-3.494,0" fill="#a60026"/>
      <path id="Path_11" data-name="Path 11" d="M117.811,60.745a2.6,2.6,0,0,0-.727-1.846,2.356,2.356,0,0,0-3.484,0,2.7,2.7,0,0,0,0,3.692,2.351,2.351,0,0,0,3.484,0,2.6,2.6,0,0,0,.727-1.846" fill="#a60026"/>
      <path id="Path_12" data-name="Path 12" d="M115.151,55.248h4.5a6.277,6.277,0,0,0,4.737-2.078,7.056,7.056,0,0,0,1.963-5.022V36.993a3.949,3.949,0,0,0-3,1.318,4.491,4.491,0,0,0-1.234,3.185v6.652a2.593,2.593,0,0,1-.727,1.846,2.317,2.317,0,0,1-1.742.772H97.424a2.3,2.3,0,0,1-1.751-.772,2.607,2.607,0,0,1-.719-1.846V35.329a17.233,17.233,0,0,0-8.069,1.7A11.9,11.9,0,0,0,82,41.526a11.645,11.645,0,0,0-1.636,5.994A7.677,7.677,0,0,0,82.5,52.976a6.819,6.819,0,0,0,5.158,2.272h4.232a4.473,4.473,0,0,0-1.246-3.184,4.043,4.043,0,0,0-2.986-1.3,2.873,2.873,0,0,1-2.163-.954,3.219,3.219,0,0,1-.9-2.292q0-5.295,6.106-7.181v7.809a7.034,7.034,0,0,0,1.972,5.022,6.306,6.306,0,0,0,4.748,2.078h17.727Z" fill="#a60026"/>
      <path id="Path_13" data-name="Path 13" d="M160.942,55.248a6.221,6.221,0,0,0,4.576-1.927,6.258,6.258,0,0,0,4.517,1.927h20.254a6.276,6.276,0,0,0,4.737-2.078,7.056,7.056,0,0,0,1.963-5.022V36.993a3.947,3.947,0,0,0-3,1.318,4.488,4.488,0,0,0-1.235,3.185v6.652a2.593,2.593,0,0,1-.727,1.846,2.313,2.313,0,0,1-1.742.772H170.111A2.325,2.325,0,0,1,168.369,50a2.583,2.583,0,0,1-.727-1.856V25.024a3.977,3.977,0,0,0-2.986,1.308,4.442,4.442,0,0,0-1.245,3.176v18.64A2.6,2.6,0,0,1,162.694,50a2.317,2.317,0,0,1-1.752.762H149.858a2.31,2.31,0,0,1-1.741-.772,2.59,2.59,0,0,1-.728-1.846V46.039A8.989,8.989,0,0,0,145,39.811a8.464,8.464,0,0,0-5.953-2.8h-.269a7.451,7.451,0,0,0-.784.041,10.483,10.483,0,0,0-6.567,3.063l.593.71a3.884,3.884,0,0,0,4.4,1.136,6.147,6.147,0,0,1,1.894-.446h.058c.14-.013.268-.02.383-.02h.173a4.232,4.232,0,0,1,2.976,1.369,4.78,4.78,0,0,1,1.254,3.174,4.713,4.713,0,0,1-1.263,3.286,4.39,4.39,0,0,1-3.082,1.441h-5.36a3.979,3.979,0,0,0-2.987,1.308,4.441,4.441,0,0,0-1.245,3.174h9.822a8.353,8.353,0,0,0,5.57-2.414q.192.224.4.446a5.953,5.953,0,0,0,4.5,1.968h11.429Z" fill="#a60026"/>
      <path id="Path_14" data-name="Path 14" d="M189.006,58.9a2.707,2.707,0,0,0,0,3.692,2.351,2.351,0,0,0,3.484,0,2.707,2.707,0,0,0,0-3.692,2.356,2.356,0,0,0-3.484,0" fill="#a60026"/>
      <path id="Path_15" data-name="Path 15" d="M4.41,83.887H0v15H4.308c3.859,0,7.33-2.292,7.33-7.5,0-5.787-3.021-7.5-7.228-7.5M3.8,96.064H2.9V86.71H4.41c2.655,0,4.083,1.158,4.083,4.677,0,3.844-1.572,4.677-4.7,4.677" fill="#a60026"/>
      <path id="Path_16" data-name="Path 16" d="M22.393,92.615c0,1.968-.592,3.866-2.9,3.866-2.369,0-3.022-1.736-3.022-4.1v-8.5h-2.9v8.89c0,3.519,1.572,6.436,5.738,6.436,3.348,0,5.982-1.759,5.982-6.506v-8.82h-2.9Z" fill="#a60026"/>
      <path id="Path_17" data-name="Path 17" d="M35.558,90.994A3.3,3.3,0,0,0,37.6,87.868c0-2.361-1.653-3.982-4.859-3.982H27.9v15h5.186c3.247,0,5.043-1.6,5.043-4.4a3.512,3.512,0,0,0-2.572-3.5M30.8,86.478h1.9c1.286,0,1.96.6,1.96,1.667,0,1.39-.96,1.829-2.247,1.829H30.8Zm2.042,9.771H30.8v-3.8h2.124c1.552,0,2.225.811,2.225,1.876,0,1.041-.531,1.921-2.307,1.921" fill="#a60026"/>
      <path id="Path_18" data-name="Path 18" d="M43.6,83.886,38.841,98.7v.185h3.042L42.925,95.3h4.9l1.061,3.589H51.97V98.7L47.213,83.886Zm.1,8.775,1.653-5.719,1.7,5.719Z" fill="#a60026"/>
      <rect id="Rectangle_1" data-name="Rectangle 1" width="2.899" height="15.003" transform="translate(53.68 83.887)" fill="#a60026"/>
      <path id="Path_19" data-name="Path 19" d="M72.378,90.462a22.416,22.416,0,0,0-1.144,2.964,26.734,26.734,0,0,0-1.142-2.964L67.07,83.887H64.089v15h2.818V89.558c.183.557.448,1.227.9,2.246l2.327,5.232h2.226L74.645,91.8a20.905,20.905,0,0,0,.9-2.246v9.331H78.4v-15H75.421Z" fill="#a60026"/>
      <path id="Path_20" data-name="Path 20" d="M89.83,92.615c0,1.968-.592,3.866-2.9,3.866-2.369,0-3.022-1.736-3.022-4.1v-8.5h-2.9v8.89c0,3.519,1.572,6.436,5.738,6.436,3.348,0,5.982-1.759,5.982-6.506v-8.82h-2.9Z" fill="#a60026"/>
      <path id="Path_21" data-name="Path 21" d="M104.261,94a20.47,20.47,0,0,0-1.286-2.431l-4.512-7.686H95.339v15h2.838V88.748A22.308,22.308,0,0,0,99.79,91.9l4.145,6.992h3.144v-15h-2.818Z" fill="#a60026"/>
      <rect id="Rectangle_2" data-name="Rectangle 2" width="2.899" height="15.003" transform="translate(109.973 83.887)" fill="#a60026"/>
      <path id="Path_22" data-name="Path 22" d="M121.793,96.412c-2.308,0-3.676-1.713-3.676-5.094,0-3.148,1.021-5.024,3.45-5.024a5.29,5.29,0,0,1,3.145,1.065l1.082-2.431a7.371,7.371,0,0,0-4.368-1.366c-3.329,0-6.331,1.945-6.331,7.941,0,4.376,1.736,7.71,6.411,7.71a7.546,7.546,0,0,0,4.39-1.5l-1.122-2.315a4.9,4.9,0,0,1-2.981,1.018" fill="#a60026"/>
      <rect id="Rectangle_3" data-name="Rectangle 3" width="2.899" height="15.003" transform="translate(127.588 83.887)" fill="#a60026"/>
      <path id="Path_23" data-name="Path 23" d="M138.038,83.887H133.4v15h2.9V93.865h1.674c3.533,0,5.288-2.2,5.288-5.163,0-2.732-1.612-4.815-5.227-4.815m-.346,7.338H136.3v-4.7H138a2.043,2.043,0,0,1,2.286,2.268c0,1.876-1.041,2.431-2.592,2.431" fill="#a60026"/>
      <path id="Path_24" data-name="Path 24" d="M147.387,83.886,142.629,98.7v.185h3.042l1.042-3.589h4.9l1.061,3.589h3.083V98.7L151,83.886Zm.1,8.775,1.653-5.719,1.7,5.719Z" fill="#a60026"/>
      <path id="Path_25" data-name="Path 25" d="M160.368,83.887h-2.9v15h8.9V96.064h-6Z" fill="#a60026"/>
      <rect id="Rectangle_4" data-name="Rectangle 4" width="2.899" height="15.003" transform="translate(168.103 83.887)" fill="#a60026"/>
      <path id="Path_26" data-name="Path 26" d="M172.736,86.688h4.227v12.2h2.9v-12.2h4.124v-2.8h-11.25Z" fill="#a60026"/>
      <path id="Path_27" data-name="Path 27" d="M193.844,83.887l-3.1,5.787-2.981-5.787h-3.267v.185l4.778,8.659V98.89h2.9V92.638l4.818-8.566v-.185Z" fill="#a60026"/>
    </g>
  </g>
</svg>
